<svg xmlns="http://www.w3.org/2000/svg" xmlns:xlink="http://www.w3.org/1999/xlink" viewBox="0 0 48 60" version="1.1" x="0px" y="0px"><title>3.5</title><desc>Created with Sketch.</desc><g stroke="none" stroke-width="1" fill="none" fill-rule="evenodd"><g fill-rule="nonzero" fill="#000000"><g><path d="M18,16 L18,18 L18,22.0018986 C18,23.1054196 17.1122704,24 16,24 C14.8954305,24 14,23.1132936 14,22.0018986 L14,21.0009493 L14,25.0047466 L14,16 L8.00002553,16 C7.83144608,16 7.55246778,16.2493305 7.53410394,16.4146051 L4.46906006,44 L43.5309399,44 L40.4658961,16.4146051 C40.4476173,16.2500961 40.1683092,16 39.9999745,16 L34,16 L34,25.0047466 L34,21.0009493 L34,22.0018986 C34,23.1054196 33.1122704,24 32,24 C30.8954305,24 30,23.1132936 30,22.0018986 L30,18 L30,16 L18,16 Z M18,12 L30,12 L30,9.99050677 C30,6.68240243 27.3148953,4 24,4 C20.6921043,4 18,6.68746253 18,9.99050677 L18,12 Z M14,12 L14,9.99050677 C14,4.47290224 18.4883904,0 24,0 C29.5228475,0 34,4.47207592 34,9.99050677 L34,12 L39.9999745,12 C42.2091276,12 44.1983606,13.7852456 44.441431,15.9728789 L47.558569,44.0271211 C47.8023646,46.2212815 46.2059475,48 43.9901068,48 L4.00989318,48 C1.79529033,48 0.198360622,46.2147544 0.441430994,44.0271211 L3.55856901,15.9728789 C3.80236461,13.7787185 5.79642476,12 8.00002553,12 L14,12 Z"/></g></g></g><text x="0" y="63" fill="#000000" font-size="5px" font-weight="bold" font-family="'Helvetica Neue', Helvetica, Arial-Unicode, Arial, Sans-serif">Created by Тимур Минвалеев</text><text x="0" y="68" fill="#000000" font-size="5px" font-weight="bold" font-family="'Helvetica Neue', Helvetica, Arial-Unicode, Arial, Sans-serif">from the Noun Project</text></svg>