<svg xmlns="http://www.w3.org/2000/svg" viewBox="0 0 338.23 136.06"><defs><style>.cls-1{fill:#2a323f;}</style></defs><title>mobile-logo</title><g id="Слой_2" data-name="Слой 2"><g id="Layer_1" data-name="Layer 1"><path class="cls-1" d="M116.71,77.81a12.81,12.81,0,0,1-7.21-1.94V71.55a11.24,11.24,0,0,0,2.94,1.54,11.73,11.73,0,0,0,4.08.79c2.15,0,3.24-.61,3.24-1.81a1.55,1.55,0,0,0-.87-1.37,3.74,3.74,0,0,0-1.12-.47l-.2-.06-1.75-.53-1.41-.42-1.25-.49a7.66,7.66,0,0,1-1.22-.58l-.06,0a7,7,0,0,1-1.73-1.63,6.09,6.09,0,0,1-.65-2.7c0-3.46,2.74-5.52,7.32-5.52a13.48,13.48,0,0,1,6.27,1.49v4.12a14.17,14.17,0,0,0-2.7-1.11,12,12,0,0,0-3.51-.57c-1.88,0-2.83.52-2.83,1.56a1.32,1.32,0,0,0,1,1.15l.9.31c.31.1.82.25,1.35.4l1.31.38a12.38,12.38,0,0,1,4.27,2.24,4.6,4.6,0,0,1,1.48,3.66,5.14,5.14,0,0,1-2.1,4.31A8.82,8.82,0,0,1,116.71,77.81Z"/><polygon class="cls-1" points="143.32 77.43 143.32 64.96 139.43 70.82 137 70.82 132.99 64.99 132.99 77.43 128.58 77.43 128.58 58.64 133.1 58.64 138.15 66.31 143.22 58.64 147.71 58.64 147.71 77.43 143.32 77.43"/><path class="cls-1" d="M166.85,77.43l-1.63-4.09h-7.58L156,77.43h-4.64l7.89-18.9h4.41l7.89,18.9ZM159,69.92h4.87l-2.43-6.23Z"/><path class="cls-1" d="M187.54,77.43,182.07,70h-2.42v7.38h-4.41V58.64h8.81a6.9,6.9,0,0,1,4.87,1.61,5.17,5.17,0,0,1,1.82,4.08,5.41,5.41,0,0,1-3.58,5.18l-.35.13,5.75,7.78Zm-7.89-10.88h4.13c1.52,0,2.5-.83,2.5-2.11a2.22,2.22,0,0,0-2.5-2.16h-4.13Z"/><polygon class="cls-1" points="200.13 77.43 200.13 62.44 194.32 62.44 194.32 58.64 210.38 58.64 210.38 62.44 204.54 62.44 204.54 77.43 200.13 77.43"/><path class="cls-1" d="M230.71,77.81a10.74,10.74,0,0,1-7.52-2.75,9,9,0,0,1-3-7,9.23,9.23,0,0,1,3-7,10.74,10.74,0,0,1,7.52-2.75,10.87,10.87,0,0,1,4.72,1v4.22a9.39,9.39,0,0,0-4.67-1.2,6,6,0,0,0-4.26,1.63,5.82,5.82,0,0,0,0,8.3,6.38,6.38,0,0,0,4.42,1.6,8.72,8.72,0,0,0,4.81-1.29v4.2A11.36,11.36,0,0,1,230.71,77.81Z"/><path class="cls-1" d="M254.27,77.43l-1.63-4.09h-7.58l-1.63,4.09H238.8l7.89-18.9h4.41L259,77.43Zm-7.85-7.51h4.87l-2.43-6.23Z"/><path class="cls-1" d="M269.21,77.81A12.81,12.81,0,0,1,262,75.87V71.55a11.24,11.24,0,0,0,2.94,1.54,11.73,11.73,0,0,0,4.08.79c2.15,0,3.24-.61,3.24-1.81a1.55,1.55,0,0,0-.87-1.37,3.76,3.76,0,0,0-1.12-.47l-.2-.06-1.75-.53-1.41-.42-1.25-.49a7.61,7.61,0,0,1-1.22-.58l-.06,0a7,7,0,0,1-1.73-1.63,6.09,6.09,0,0,1-.65-2.7c0-3.46,2.74-5.52,7.32-5.52a13.48,13.48,0,0,1,6.27,1.49v4.12a14.18,14.18,0,0,0-2.7-1.11,12,12,0,0,0-3.51-.57c-1.88,0-2.83.52-2.83,1.56a1.32,1.32,0,0,0,1,1.15l.9.31c.31.1.82.25,1.35.4l1.31.38a12.38,12.38,0,0,1,4.27,2.24,4.6,4.6,0,0,1,1.48,3.66,5.14,5.14,0,0,1-2.1,4.31A8.82,8.82,0,0,1,269.21,77.81Z"/><path class="cls-1" d="M289,77.81a8.44,8.44,0,0,1-5.89-2.14,7.92,7.92,0,0,1-2.31-6.07v-11h4.41V69.86a3.59,3.59,0,0,0,3.8,3.93c2.38,0,3.8-1.47,3.8-3.93V58.64h4.41v11a7.92,7.92,0,0,1-2.32,6.07A8.44,8.44,0,0,1,289,77.81Z"/><path class="cls-1" d="M316.14,77.43l-1.63-4.09h-7.57l-1.63,4.09h-4.64l7.89-18.9H313l7.89,18.9Zm-7.85-7.51h4.87l-2.43-6.23Z"/><polygon class="cls-1" points="324.53 77.43 324.53 58.64 328.94 58.64 328.94 73.63 338.23 73.63 338.23 77.43 324.53 77.43"/><path class="cls-1" d="M90.71,68A45.26,45.26,0,0,0,73.4,32.45,28.34,28.34,0,1,0,17,28.35h0c0,1.43.09,2.81.22,4.15a45.27,45.27,0,0,0,.08,71.14v0l.48.35q.82.63,1.66,1.22l.75.52c.69.46,1.4.91,2.12,1.33l.37.23v0a45.23,45.23,0,0,0,42.46,1.54c0-.37,0-.74,0-1.11a33.42,33.42,0,0,0-.39-5.1,39.66,39.66,0,0,1-41.18-1.38A22.71,22.71,0,0,1,34,88.08l-2.83-4.9A28.5,28.5,0,0,0,18.89,97.6a39.67,39.67,0,0,1-.52-58.65c.73-.68,1.49-1.33,2.28-2l.24-.19c.78-.61,1.58-1.2,2.4-1.75A39.69,39.69,0,0,1,64.55,33.3a19.75,19.75,0,0,0,.65-4.95c0-.38,0-.75-.06-1.12a45.23,45.23,0,0,0-42.45,1.54c0-.14,0-.28,0-.43a22.68,22.68,0,1,1,45.35,0c0,.21,0,.42,0,.63,0,.43,0,.86-.07,1.28,0,.1,0,.2,0,.3,0,.41-.09.82-.15,1.22,0,.12,0,.23-.06.34-.06.38-.13.76-.22,1.14,0,.13-.06.26-.09.39-.08.35-.17.71-.28,1.06A22.73,22.73,0,0,1,56.69,48l2.83,4.9a28.51,28.51,0,0,0,12.29-14.4,39.61,39.61,0,0,1,.53,58.62C65.1,70.33,31.1,63.06,24,38A37.14,37.14,0,0,0,19.32,42c9.26,25.44,43.4,32.69,48.14,59.38.06.35.13.71.18,1.07q.14.94.22,1.91c0,.31.05.62.07.94.05.8.09,1.61.09,2.45h0a22.67,22.67,0,0,1-45.16,2.92A48.29,48.29,0,0,1,17,107c0,.24,0,.49,0,.73a28.35,28.35,0,1,0,56.69,0h0c0-1.44-.07-2.83-.2-4.18A45.26,45.26,0,0,0,90.71,68Z"/></g></g></svg>