<svg xmlns="http://www.w3.org/2000/svg" xmlns:xlink="http://www.w3.org/1999/xlink" version="1.1" x="0px" y="0px" viewBox="0 0 500 625" style="enable-background:new 0 0 500 500;" xml:space="preserve"><path d="M351.7,154.4h-22C320.8,115.2,288.4,86,250,86c-38.5,0-70.8,29.2-79.6,68.4h-22c-14.9,0-27,12.1-27,27v203.3  c0,14.9,12.1,27,27,27h203.3c14.9,0,27-12.1,27-27V181.4C378.7,166.6,366.5,154.4,351.7,154.4z M250,110c25.4,0,46.9,18.6,54.8,44.4  H195.2C203,128.6,224.6,110,250,110z M354.7,384.8c0,1.7-1.3,3-3,3H148.3c-1.7,0-3-1.3-3-3V181.4c0-1.7,1.3-3,3-3h19.9  c1.1,5.5,6,9.6,11.8,9.6s10.6-4.1,11.8-9.6h116.5c1.1,5.5,6,9.6,11.8,9.6s10.6-4.1,11.8-9.6h19.9c1.7,0,3,1.3,3,3V384.8z"/><text x="0" y="515" fill="#000000" font-size="5px" font-weight="bold" font-family="'Helvetica Neue', Helvetica, Arial-Unicode, Arial, Sans-serif">Created by Robert Salazar</text><text x="0" y="520" fill="#000000" font-size="5px" font-weight="bold" font-family="'Helvetica Neue', Helvetica, Arial-Unicode, Arial, Sans-serif">from the Noun Project</text></svg>