<svg xmlns="http://www.w3.org/2000/svg" xmlns:xlink="http://www.w3.org/1999/xlink" version="1.1" x="0px" y="0px" viewBox="0 0 100 125" enable-background="new 0 0 100 100" xml:space="preserve"><g><path fill="none" d="M57.522,39.441l-7.522-15.241l-7.523,15.241c-0.77,1.563-2.261,2.645-3.985,2.896l-16.822,2.445l12.173,11.864   c1.248,1.217,1.816,2.969,1.523,4.687l-2.874,16.752l15.045-7.909c0.771-0.406,1.617-0.608,2.464-0.608s1.692,0.202,2.464,0.608   l15.044,7.909l-2.873-16.753c-0.294-1.716,0.275-3.469,1.523-4.685l12.171-11.865l-16.821-2.445   C59.784,42.086,58.294,41.003,57.522,39.441z"/><path d="M94.741,39.448c-0.622-1.916-2.279-3.313-4.273-3.603l-24.682-3.587L54.749,9.895c-0.892-1.807-2.732-2.951-4.748-2.951   c-2.015,0-3.855,1.144-4.747,2.951L34.215,32.259L9.532,35.846c-1.994,0.29-3.651,1.686-4.273,3.603   c-0.623,1.917-0.103,4.021,1.339,5.428l17.861,17.409l-4.216,24.581c-0.34,1.986,0.477,3.994,2.107,5.179   c1.629,1.184,3.79,1.342,5.575,0.402l22.076-11.606l22.075,11.606c0.775,0.408,1.62,0.608,2.463,0.608   c1.098,0,2.19-0.341,3.112-1.011c1.63-1.185,2.447-3.192,2.107-5.178l-4.215-24.582l17.859-17.41   C94.844,43.469,95.364,41.365,94.741,39.448z M66.158,56.647c-1.248,1.216-1.816,2.968-1.523,4.685l2.873,16.753l-15.044-7.909   c-0.771-0.406-1.617-0.608-2.464-0.608s-1.692,0.202-2.464,0.608l-15.045,7.909l2.874-16.752c0.294-1.717-0.275-3.47-1.523-4.687   L21.671,44.781l16.822-2.445c1.724-0.251,3.215-1.333,3.985-2.896l7.523-15.241l7.522,15.241c0.771,1.562,2.262,2.645,3.986,2.896   l16.821,2.445L66.158,56.647z"/></g><text x="0" y="115" fill="#000000" font-size="5px" font-weight="bold" font-family="'Helvetica Neue', Helvetica, Arial-Unicode, Arial, Sans-serif">Created by Vladimir Belochkin</text><text x="0" y="120" fill="#000000" font-size="5px" font-weight="bold" font-family="'Helvetica Neue', Helvetica, Arial-Unicode, Arial, Sans-serif">from the Noun Project</text></svg>