<svg xmlns="http://www.w3.org/2000/svg" xmlns:xlink="http://www.w3.org/1999/xlink" version="1.1" x="0px" y="0px" viewBox="0 0 100 125" enable-background="new 0 0 100 100" xml:space="preserve"><g><path fill="none" d="M58.974,38.518l-8.973-18.181l-8.974,18.181c-0.596,1.207-1.748,2.045-3.08,2.238l-20.066,2.916l14.52,14.153   c0.964,0.94,1.404,2.294,1.177,3.621l-3.428,19.983l17.947-9.435c1.192-0.627,2.616-0.627,3.807,0l17.946,9.435l-3.427-19.983   c-0.227-1.327,0.213-2.681,1.176-3.621l14.519-14.153l-20.065-2.916C60.721,40.562,59.569,39.725,58.974,38.518z"/><path d="M94.8,39.551c-0.481-1.481-1.761-2.56-3.302-2.784l-26.139-3.799L53.669,9.283c-0.689-1.396-2.111-2.281-3.668-2.281   s-2.979,0.884-3.668,2.281l-11.69,23.685l-26.14,3.799c-1.54,0.224-2.821,1.303-3.302,2.784c-0.481,1.481-0.08,3.106,1.035,4.194   l18.915,18.438l-4.466,26.033c-0.263,1.535,0.368,3.086,1.627,4.001c0.713,0.518,1.557,0.781,2.405,0.781   c0.652,0,1.305-0.155,1.903-0.47l23.38-12.291L73.38,92.528c1.377,0.724,3.049,0.605,4.308-0.312   c1.26-0.915,1.891-2.466,1.628-4.001l-4.465-26.033l18.914-18.438C94.88,42.658,95.281,41.032,94.8,39.551z M67.6,57.825   c-0.963,0.94-1.404,2.294-1.176,3.621l3.427,19.983l-17.946-9.435c-1.191-0.627-2.615-0.627-3.807,0l-17.947,9.435l3.428-19.983   c0.227-1.327-0.213-2.681-1.177-3.621l-14.52-14.153l20.066-2.916c1.332-0.194,2.484-1.031,3.08-2.238l8.974-18.181l8.973,18.181   c0.596,1.207,1.747,2.045,3.08,2.238l20.065,2.916L67.6,57.825z"/></g><text x="0" y="115" fill="#000000" font-size="5px" font-weight="bold" font-family="'Helvetica Neue', Helvetica, Arial-Unicode, Arial, Sans-serif">Created by Vladimir Belochkin</text><text x="0" y="120" fill="#000000" font-size="5px" font-weight="bold" font-family="'Helvetica Neue', Helvetica, Arial-Unicode, Arial, Sans-serif">from the Noun Project</text></svg>