<svg xmlns="http://www.w3.org/2000/svg" xmlns:xlink="http://www.w3.org/1999/xlink" version="1.1" x="0px" y="0px" viewBox="0 0 100 125" enable-background="new 0 0 100 100" xml:space="preserve"><g><path fill="none" d="M58.48,38.832l-8.48-17.182L41.52,38.832c-0.656,1.328-1.922,2.248-3.388,2.462L19.17,44.049l13.722,13.375   c1.06,1.034,1.544,2.523,1.294,3.983l-3.239,18.884l16.959-8.917c1.311-0.689,2.878-0.689,4.189,0l16.959,8.917l-3.238-18.885   c-0.25-1.459,0.233-2.949,1.294-3.982L80.83,44.049l-18.962-2.755C60.403,41.08,59.135,40.16,58.48,38.832z"/><path d="M94.779,39.517c-0.529-1.629-1.937-2.817-3.633-3.063l-25.643-3.727L54.036,9.491c-0.758-1.536-2.322-2.508-4.035-2.508   s-3.277,0.972-4.035,2.508L34.497,32.727L8.853,36.454C7.158,36.7,5.75,37.887,5.22,39.517c-0.529,1.629-0.088,3.417,1.139,4.613   l18.556,18.088l-4.38,25.539c-0.29,1.688,0.405,3.395,1.79,4.402c0.784,0.57,1.713,0.86,2.646,0.86   c0.716,0,1.435-0.171,2.094-0.517l22.936-12.059l22.935,12.059c1.518,0.798,3.353,0.664,4.739-0.343   c1.386-1.006,2.08-2.713,1.79-4.401l-4.38-25.54l18.556-18.088C94.867,42.934,95.309,41.145,94.779,39.517z M67.11,57.424   c-1.061,1.034-1.544,2.523-1.294,3.982l3.238,18.885l-16.959-8.917c-1.311-0.689-2.878-0.689-4.189,0l-16.959,8.917l3.239-18.884   c0.25-1.46-0.234-2.95-1.294-3.983L19.17,44.049l18.962-2.755c1.466-0.214,2.733-1.134,3.388-2.462l8.481-17.182l8.48,17.182   c0.655,1.328,1.922,2.248,3.388,2.462l18.962,2.755L67.11,57.424z"/></g><text x="0" y="115" fill="#000000" font-size="5px" font-weight="bold" font-family="'Helvetica Neue', Helvetica, Arial-Unicode, Arial, Sans-serif">Created by Vladimir Belochkin</text><text x="0" y="120" fill="#000000" font-size="5px" font-weight="bold" font-family="'Helvetica Neue', Helvetica, Arial-Unicode, Arial, Sans-serif">from the Noun Project</text></svg>