<?xml version="1.0" encoding="utf-8"?>
<!-- Generator: Adobe Illustrator 14.0.0, SVG Export Plug-In . SVG Version: 6.00 Build 43363)  -->
<!DOCTYPE svg PUBLIC "-//W3C//DTD SVG 1.1//EN" "http://www.w3.org/Graphics/SVG/1.1/DTD/svg11.dtd">
<svg version="1.1" id="Слой_1" xmlns="http://www.w3.org/2000/svg" xmlns:xlink="http://www.w3.org/1999/xlink" x="0px" y="0px"
	 width="15.191px" height="20.711px" viewBox="0 0 15.191 20.711" enable-background="new 0 0 15.191 20.711" xml:space="preserve">
<path fill="#C2C3C4" d="M7.583,0C3.396,0.007-0.008,3.418,0,7.605c0.003,0.868,0.15,1.702,0.419,2.479
	c0.474,1.359,1.323,2.543,2.421,3.427c0.998,0.821,1.691,1.997,1.887,3.333h0.002c0.011,0.099,0.076,0.181,0.166,0.213
	c0.002,0.001,0.004,0.001,0.008,0.001c0.006,0.002,0.013,0.003,0.018,0.006c0.686,0.192,1.402,0.315,2.139,0.355
	c0.184,0.01,0.367,0.014,0.553,0.014c0.182,0,0.36-0.006,0.54-0.016c0.741-0.041,1.462-0.164,2.151-0.362h0.002
	c0,0,0.002,0,0.002-0.001c0.084-0.028,0.15-0.1,0.17-0.186c0-0.014,0.002-0.026,0.002-0.038c0.184-1.27,0.818-2.396,1.734-3.211
	c0.113-0.101,0.232-0.199,0.356-0.291c0.999-0.868,1.771-1.992,2.21-3.271c0.27-0.778,0.414-1.613,0.412-2.478
	C15.184,3.396,11.771-0.008,7.583,0 M10.775,11.854C9.772,12.724,9,13.848,8.561,15.128c-0.074,0.01-0.147,0.019-0.223,0.025
	C8.1,15.176,7.855,15.19,7.609,15.19c-0.254,0-0.504-0.012-0.75-0.037c-0.072-0.006-0.146-0.015-0.219-0.023
	c-0.473-1.357-1.322-2.542-2.419-3.428V11.7c-1.183-0.972-1.939-2.448-1.943-4.097C2.273,4.671,4.655,2.282,7.589,2.277
	c2.931-0.006,5.321,2.376,5.325,5.308c0.002,1.582-0.688,3.004-1.785,3.982C11.016,11.666,10.897,11.764,10.775,11.854"/>
<path fill="#C2C3C4" d="M10.188,6.729c-0.481,0-0.874,0.372-0.909,0.843v0.02c0,0.027,0,0.057-0.002,0.083
	c-0.002,0.002-0.002,0.002,0,0.002C9.233,8.567,8.496,9.276,7.6,9.276C6.687,9.279,5.943,8.554,5.913,7.65V7.632
	C5.902,7.138,5.498,6.74,5,6.742c-0.503,0-0.908,0.408-0.908,0.911c0.029,1.908,1.596,3.449,3.51,3.446
	C9.5,11.095,11.045,9.579,11.1,7.692c0.002-0.004,0.002-0.008,0.002-0.014V7.622C11.092,7.125,10.686,6.728,10.188,6.729"/>
<path fill="#C2C3C4" d="M10.338,17.901c-0.007,0-0.013,0-0.02,0.002c0,0-0.006,0.001-0.006,0.002
	c-0.688,0.18-1.402,0.295-2.137,0.333c-0.186,0.01-0.373,0.017-0.563,0.017c-0.193,0-0.387-0.004-0.576-0.016
	c-0.737-0.036-1.454-0.15-2.143-0.331c-0.003,0-0.007-0.003-0.011-0.003c-0.007-0.001-0.012-0.002-0.019-0.002
	c-0.047,0-0.084,0.036-0.092,0.08c0,0.011,0.002,0.021,0.004,0.03v0.002c0.051,1.114,0.746,2.061,1.721,2.474
	c0.34,0.144,0.715,0.223,1.107,0.223C8,20.71,8.377,20.628,8.721,20.481c0.972-0.419,1.662-1.369,1.705-2.482
	c0.002-0.004,0.002-0.005,0.002-0.008v-0.003C10.426,17.939,10.386,17.901,10.338,17.901"/>
</svg>
