<svg xmlns="http://www.w3.org/2000/svg" viewBox="0 0 228.73 174"><defs><style>.cls-1{fill:#2a323f;}</style></defs><g id="Слой_2" data-name="Слой 2"><g id="Layer_1" data-name="Layer 1"><path class="cls-1" d="M155.1,68a45.26,45.26,0,0,0-17.31-35.59,28.34,28.34,0,1,0-56.39-4.1h0c0,1.43.09,2.81.22,4.15a45.27,45.27,0,0,0,.08,71.14v0l.48.35q.82.63,1.66,1.22l.75.52c.69.46,1.4.91,2.12,1.33l.37.23v0a45.23,45.23,0,0,0,42.46,1.54c0-.37,0-.74,0-1.11a33.41,33.41,0,0,0-.39-5.1A39.66,39.66,0,0,1,88,101.24,22.71,22.71,0,0,1,98.4,88.08l-2.83-4.9A28.5,28.5,0,0,0,83.28,97.6a39.67,39.67,0,0,1-.52-58.65c.73-.68,1.49-1.33,2.28-2l.24-.19c.78-.61,1.58-1.2,2.4-1.75a39.69,39.69,0,0,1,41.26-1.75,19.75,19.75,0,0,0,.65-4.95c0-.38,0-.75-.06-1.12a45.23,45.23,0,0,0-42.45,1.54c0-.14,0-.28,0-.43a22.68,22.68,0,1,1,45.35,0c0,.21,0,.42,0,.63,0,.43,0,.86-.07,1.28,0,.1,0,.2,0,.3,0,.41-.09.82-.15,1.22,0,.12,0,.23-.06.34-.06.38-.13.76-.22,1.14,0,.13-.06.26-.1.39-.08.35-.17.71-.28,1.06A22.73,22.73,0,0,1,121.08,48l2.83,4.9a28.51,28.51,0,0,0,12.29-14.4,39.61,39.61,0,0,1,.53,58.62c-7.24-26.77-41.24-34-48.35-59.07A37.14,37.14,0,0,0,83.71,42c9.26,25.44,43.4,32.69,48.14,59.38.06.35.13.71.18,1.07q.14.94.22,1.91c0,.31.05.62.07.94.05.8.09,1.61.09,2.45h0a22.67,22.67,0,0,1-45.16,2.92A48.28,48.28,0,0,1,81.42,107c0,.24,0,.49,0,.73a28.35,28.35,0,1,0,56.69,0h0c0-1.44-.07-2.83-.2-4.18A45.26,45.26,0,0,0,155.1,68Z"/></g></g></svg>
